<?xml version="1.0" encoding="UTF-8" standalone="no"?>
<svg
   viewBox="0 0 22 22"
   version="1.1"
   id="svg1"
   sodipodi:docname="fill-color.svg"
   inkscape:version="1.4.4 (dcaf3e7d9e, 2026-05-05)"
   xmlns:inkscape="http://www.inkscape.org/namespaces/inkscape"
   xmlns:sodipodi="http://sodipodi.sourceforge.net/DTD/sodipodi-0.dtd"
   xmlns="http://www.w3.org/2000/svg"
   xmlns:svg="http://www.w3.org/2000/svg">
  <sodipodi:namedview
     id="namedview1"
     pagecolor="#ffffff"
     bordercolor="#999999"
     borderopacity="1"
     inkscape:showpageshadow="0"
     inkscape:pageopacity="0"
     inkscape:pagecheckerboard="0"
     inkscape:deskcolor="#d1d1d1"
     inkscape:zoom="39.863636"
     inkscape:cx="10.987457"
     inkscape:cy="11"
     inkscape:window-width="1920"
     inkscape:window-height="1128"
     inkscape:window-x="0"
     inkscape:window-y="0"
     inkscape:window-maximized="1"
     inkscape:current-layer="svg1" />
  <defs
     id="defs3051">
    <style
       type="text/css"
       id="current-color-scheme">
      .ColorScheme-Text {
        color:#232629;
      }
      </style>
    <filter
       style="color-interpolation-filters:sRGB;"
       inkscape:label="Invert"
       id="filter1"
       x="0"
       y="0"
       width="1"
       height="1">
      <feColorMatrix
         values="-1 0 0 0 1 0 -1 0 0 1 0 0 -1 0 1 -0.21 -0.72 -0.07 2 0 "
         result="color2"
         id="feColorMatrix1" />
    </filter>
  </defs>
  <path
     style="fill:currentColor;fill-opacity:1;stroke:none;filter:url(#filter1)"
     d="m10.5 1033.3622c-1.385 0-2.5 1.115-2.5 2.5v2.5l-5 5 6 6 7-7-3-3v-3.5c0-1.385-1.115-2.5-2.5-2.5m0 1c.831 0 1.5.669 1.5 1.5v2.5l-2-2-1 1v-1.5c0-.831.669-1.5 1.5-1.5m-.5 3.4141l4.535156 4.5371c-3.53535 4.0497-5.535933-1.9511-10.121094 1.0488l5.585938-5.5859m7.5 3.5859c0 0-1.5 2.6716-1.5 3.5 0 .8284.67157 1.5 1.5 1.5.82843 0 1.5-.6716 1.5-1.5 0-.8284-1.5-3.5-1.5-3.5z"
     transform="translate(0-1030.3622)"
     class="ColorScheme-Text"
     id="path1" />
</svg>
